<svg width="9" height="10" viewBox="0 0 9 10" fill="none" xmlns="http://www.w3.org/2000/svg">
<path d="M6.25 8.75V9.53125C6.25 9.79014 6.04014 10 5.78125 10H0.46875C0.209863 10 0 9.79014 0 9.53125V2.34375C0 2.08486 0.209863 1.875 0.46875 1.875H1.875V7.65625C1.875 8.25936 2.36564 8.75 2.96875 8.75H6.25ZM6.25 2.03125V0H2.96875C2.70986 0 2.5 0.209863 2.5 0.46875V7.65625C2.5 7.91514 2.70986 8.125 2.96875 8.125H8.28125C8.54014 8.125 8.75 7.91514 8.75 7.65625V2.5H6.71875C6.46094 2.5 6.25 2.28906 6.25 2.03125ZM8.61272 1.42521L7.32478 0.137285C7.23688 0.0493833 7.11765 6.49992e-07 6.99334 0L6.875 0V1.875H8.75V1.75666C8.75 1.63235 8.70062 1.51312 8.61272 1.42521Z" fill="url(#paint0_linear_75_3123)"/>
<defs>
<linearGradient id="paint0_linear_75_3123" x1="1" y1="-2.98023e-08" x2="9" y2="10" gradientUnits="userSpaceOnUse">
<stop stop-color="#DC84F2"/>
<stop offset="1" stop-color="#44C8DE"/>
</linearGradient>
</defs>
</svg>
