<svg width="222" height="44" viewBox="0 0 222 44" fill="none" xmlns="http://www.w3.org/2000/svg">
<path d="M21.5305 39L40.7695 26.9389C41.1869 26.6772 41.0003 26.036 40.5068 26.036H10.4524M25.4695 5L6.23051 17.0611C5.81308 17.3228 5.99967 17.964 6.49324 17.964H36.5476" stroke="url(#paint0_linear_75_2998)" stroke-width="10" stroke-linecap="round"/>
<path d="M71.816 31.288C68.8293 31.288 66.4613 30.776 64.712 29.752C62.984 28.728 62.12 27.3093 62.12 25.496C62.12 24.7067 62.4187 24.0667 63.016 23.576C63.6133 23.0853 64.616 22.84 66.024 22.84C66.1093 24.3973 66.6427 25.5813 67.624 26.392C68.6267 27.1813 70.024 27.576 71.816 27.576C73.2027 27.576 74.2907 27.3413 75.08 26.872C75.8693 26.3813 76.264 25.7093 76.264 24.856C76.264 24.28 76.1147 23.8107 75.816 23.448C75.5173 23.0853 74.9947 22.7547 74.248 22.456C73.5227 22.1573 72.456 21.848 71.048 21.528C68.9147 21.0373 67.24 20.4827 66.024 19.864C64.808 19.2453 63.9227 18.5093 63.368 17.656C62.8347 16.8027 62.568 15.736 62.568 14.456C62.568 13.24 62.9307 12.1733 63.656 11.256C64.4027 10.3173 65.4373 9.592 66.76 9.08C68.0827 8.568 69.6187 8.312 71.368 8.312C73.032 8.312 74.5253 8.536 75.848 8.984C77.1707 9.41067 78.2053 10.0187 78.952 10.808C79.6987 11.5973 80.072 12.504 80.072 13.528C80.072 14.3173 79.7733 14.9467 79.176 15.416C78.6 15.864 77.64 16.1093 76.296 16.152C76.1893 14.7227 75.752 13.6773 74.984 13.016C74.216 12.3547 73.0107 12.024 71.368 12.024C70.024 12.024 68.9893 12.2373 68.264 12.664C67.5387 13.0907 67.176 13.7093 67.176 14.52C67.176 15.0747 67.3147 15.5333 67.592 15.896C67.8693 16.2373 68.3387 16.5467 69 16.824C69.6827 17.1013 70.6533 17.3787 71.912 17.656C74.1093 18.1467 75.848 18.712 77.128 19.352C78.4293 19.9707 79.368 20.7173 79.944 21.592C80.5413 22.4667 80.84 23.544 80.84 24.824C80.84 26.1253 80.4667 27.2667 79.72 28.248C78.9947 29.2293 77.9493 29.9867 76.584 30.52C75.24 31.032 73.6507 31.288 71.816 31.288ZM89.3953 31.288C88.2859 31.288 87.3686 31.0747 86.6433 30.648C85.9179 30.2213 85.4486 29.6133 85.2352 28.824L81.6513 15.096C81.8433 14.9893 82.1313 14.904 82.5153 14.84C82.8993 14.7547 83.2619 14.712 83.6033 14.712C84.3073 14.712 84.8939 14.872 85.3633 15.192C85.8539 15.4907 86.1526 15.8853 86.2593 16.376L87.8593 24.312L87.4113 26.232L87.6353 26.296L90.3233 16.152C90.4513 15.7253 90.6966 15.384 91.0593 15.128C91.4219 14.8507 91.8806 14.712 92.4353 14.712C93.0113 14.712 93.4913 14.8507 93.8753 15.128C94.2593 15.384 94.5046 15.7253 94.6113 16.152L96.6593 24.568L96.1473 26.584L96.3713 26.648L98.6112 16.376C98.7179 15.8853 99.0166 15.4907 99.5073 15.192C99.9979 14.872 100.585 14.712 101.267 14.712C101.63 14.712 101.993 14.7547 102.355 14.84C102.739 14.904 103.027 14.9893 103.219 15.096L99.6673 28.824C99.4753 29.592 98.9633 30.2 98.1313 30.648C97.2993 31.0747 96.3286 31.288 95.2193 31.288L92.1473 18.744L91.9553 18.808L92.3393 20.28L89.3953 31.288ZM109.978 31.288C108.933 31.288 107.952 31.0853 107.034 30.68C106.138 30.2533 105.413 29.6453 104.858 28.856C104.304 28.0453 104.026 27.0747 104.026 25.944C104.026 24.8133 104.325 23.8427 104.922 23.032C105.52 22.2 106.309 21.5707 107.29 21.144C108.293 20.7173 109.381 20.504 110.554 20.504C111.536 20.504 112.4 20.6533 113.146 20.952C113.914 21.2507 114.629 21.688 115.29 22.264L115.45 22.072C115.002 21.6667 114.65 21.3787 114.394 21.208V20.792C114.394 19.9813 114.096 19.3413 113.498 18.872C112.922 18.3813 112.101 18.136 111.034 18.136C110.096 18.136 109.264 18.3067 108.538 18.648C107.813 18.9893 107.226 19.4907 106.778 20.152C106.266 20.024 105.829 19.7893 105.466 19.448C105.125 19.0853 104.954 18.6907 104.954 18.264C104.954 17.6027 105.242 17.0053 105.818 16.472C106.394 15.9173 107.173 15.4907 108.154 15.192C109.157 14.872 110.256 14.712 111.45 14.712C113.776 14.712 115.568 15.2453 116.826 16.312C118.085 17.3787 118.714 18.8293 118.714 20.664V28.44C118.714 29.4427 118.384 30.168 117.722 30.616C117.082 31.064 116.058 31.288 114.65 31.288V30.04C114.97 29.7413 115.226 29.4747 115.418 29.24L115.258 29.08C114.554 29.8053 113.818 30.36 113.05 30.744C112.282 31.1067 111.258 31.288 109.978 31.288ZM111.194 28.152C112.218 28.152 113.018 27.96 113.594 27.576C114.17 27.192 114.458 26.6373 114.458 25.912C114.458 25.208 114.16 24.6533 113.562 24.248C112.986 23.8427 112.197 23.64 111.194 23.64C110.298 23.64 109.584 23.8427 109.05 24.248C108.538 24.6533 108.282 25.208 108.282 25.912C108.282 26.6373 108.538 27.192 109.05 27.576C109.584 27.96 110.298 28.152 111.194 28.152ZM122.073 17.624C122.073 16.8133 122.414 16.1307 123.097 15.576C123.779 15 124.782 14.712 126.105 14.712V16.44C125.849 16.76 125.646 17.048 125.497 17.304L125.657 17.432C126.318 16.5147 127.054 15.832 127.865 15.384C128.697 14.936 129.731 14.712 130.969 14.712C132.121 14.712 133.145 14.9573 134.041 15.448C134.958 15.9387 135.662 16.632 136.153 17.528C136.665 18.4027 136.921 19.4053 136.921 20.536V25.464C136.921 26.616 136.633 27.64 136.057 28.536C135.502 29.4107 134.723 30.0933 133.721 30.584C132.739 31.0533 131.63 31.288 130.393 31.288C129.667 31.288 128.878 31.1387 128.025 30.84C127.193 30.5413 126.499 30.1253 125.945 29.592L125.817 29.752C125.923 29.9227 126.158 30.136 126.521 30.392V34.808C126.521 36.728 125.038 37.688 122.073 37.688V17.624ZM129.497 27.512C130.478 27.512 131.225 27.3093 131.737 26.904C132.27 26.4987 132.537 25.9227 132.537 25.176V20.856C132.537 20.088 132.27 19.5013 131.737 19.096C131.225 18.6907 130.478 18.488 129.497 18.488C128.601 18.488 127.865 18.7013 127.289 19.128C126.734 19.5333 126.457 20.056 126.457 20.696V25.304C126.457 25.9227 126.734 26.4453 127.289 26.872C127.865 27.2987 128.601 27.512 129.497 27.512ZM139.791 17.624C139.791 16.8133 140.133 16.1307 140.815 15.576C141.498 15 142.501 14.712 143.823 14.712V16.44C143.567 16.76 143.365 17.048 143.215 17.304L143.375 17.432C144.037 16.5147 144.773 15.832 145.583 15.384C146.415 14.936 147.45 14.712 148.687 14.712C149.839 14.712 150.863 14.9573 151.759 15.448C152.677 15.9387 153.381 16.632 153.871 17.528C154.383 18.4027 154.639 19.4053 154.639 20.536V25.464C154.639 26.616 154.351 27.64 153.775 28.536C153.221 29.4107 152.442 30.0933 151.439 30.584C150.458 31.0533 149.349 31.288 148.111 31.288C147.386 31.288 146.597 31.1387 145.743 30.84C144.911 30.5413 144.218 30.1253 143.663 29.592L143.535 29.752C143.642 29.9227 143.877 30.136 144.239 30.392V34.808C144.239 36.728 142.757 37.688 139.791 37.688V17.624ZM147.215 27.512C148.197 27.512 148.943 27.3093 149.455 26.904C149.989 26.4987 150.255 25.9227 150.255 25.176V20.856C150.255 20.088 149.989 19.5013 149.455 19.096C148.943 18.6907 148.197 18.488 147.215 18.488C146.319 18.488 145.583 18.7013 145.007 19.128C144.453 19.5333 144.175 20.056 144.175 20.696V25.304C144.175 25.9227 144.453 26.4453 145.007 26.872C145.583 27.2987 146.319 27.512 147.215 27.512ZM164.678 31.288C163.355 31.288 162.129 31.0213 160.998 30.488C159.889 29.9547 159.003 29.2293 158.342 28.312C157.681 27.3947 157.35 26.3707 157.35 25.24V21.144C157.35 19.9493 157.681 18.8613 158.342 17.88C159.025 16.8773 159.931 16.0987 161.062 15.544C162.193 14.9893 163.409 14.712 164.71 14.712C165.99 14.712 167.163 14.9787 168.23 15.512C169.318 16.024 170.171 16.76 170.79 17.72C171.409 18.6587 171.718 19.7253 171.718 20.92V22.648C171.718 23.16 171.526 23.5973 171.142 23.96C170.758 24.3013 170.267 24.472 169.67 24.472H161.606V24.92C161.606 25.7733 161.862 26.4773 162.374 27.032C162.907 27.5653 163.686 27.832 164.71 27.832C165.713 27.832 166.449 27.6187 166.918 27.192C167.387 26.744 167.622 26.1893 167.622 25.528C168.049 25.4853 168.369 25.464 168.582 25.464C169.457 25.464 170.129 25.6453 170.598 26.008C171.067 26.3707 171.302 26.904 171.302 27.608C171.302 28.184 171.014 28.76 170.438 29.336C169.862 29.912 169.062 30.3813 168.038 30.744C167.035 31.1067 165.915 31.288 164.678 31.288ZM167.75 21.368V20.92C167.75 20.0667 167.462 19.3947 166.886 18.904C166.331 18.392 165.595 18.136 164.678 18.136C163.761 18.136 163.014 18.392 162.438 18.904C161.883 19.3947 161.606 20.0667 161.606 20.92V21.368H167.75ZM183.276 18.488C181.996 18.488 180.961 18.8187 180.172 19.48C179.382 20.1413 178.988 20.9733 178.988 21.976V28.728C178.988 29.6453 178.625 30.3067 177.9 30.712C177.196 31.096 176.097 31.288 174.604 31.288V18.04C174.604 16.9733 174.956 16.152 175.66 15.576C176.364 15 177.409 14.712 178.796 14.712V16.6C178.476 16.9413 178.209 17.304 177.996 17.688L178.22 17.816C179.564 15.7467 181.238 14.712 183.244 14.712C184.204 14.712 184.929 14.968 185.42 15.48C185.91 15.992 186.156 16.6427 186.156 17.432C186.156 18.0293 185.996 18.552 185.676 19C185.078 18.6587 184.278 18.488 183.276 18.488Z" fill="white"/>
<path d="M196.42 16.108C196.204 16.108 196.016 16.06 195.856 15.964C195.704 15.868 195.596 15.736 195.532 15.568L193.42 10.024C193.476 9.984 193.58 9.952 193.732 9.928C193.892 9.904 194.024 9.892 194.128 9.892C194.384 9.892 194.612 9.944 194.812 10.048C195.02 10.144 195.156 10.292 195.22 10.492L196.336 14.044L196.132 14.632L196.24 14.668L197.62 10.492C197.684 10.292 197.816 10.144 198.016 10.048C198.224 9.944 198.456 9.892 198.712 9.892C198.816 9.892 198.944 9.904 199.096 9.928C199.256 9.952 199.364 9.984 199.42 10.024L197.308 15.568C197.244 15.736 197.132 15.868 196.972 15.964C196.82 16.06 196.636 16.108 196.42 16.108ZM203.72 16.108C203.048 16.108 202.448 16.008 201.92 15.808C201.4 15.608 200.992 15.328 200.696 14.968C200.408 14.608 200.264 14.196 200.264 13.732C200.264 13.332 200.396 13.044 200.66 12.868C200.932 12.692 201.372 12.604 201.98 12.604C201.956 12.756 201.944 12.948 201.944 13.18C201.944 13.644 202.092 13.996 202.388 14.236C202.692 14.468 203.136 14.584 203.72 14.584C204.88 14.584 205.46 14.236 205.46 13.54C205.46 12.82 204.964 12.46 203.972 12.46H203.588C203.364 12.46 203.184 12.392 203.048 12.256C202.912 12.12 202.844 11.94 202.844 11.716C202.844 11.492 202.912 11.312 203.048 11.176C203.184 11.04 203.364 10.972 203.588 10.972H203.984C204.4 10.972 204.708 10.892 204.908 10.732C205.116 10.564 205.22 10.312 205.22 9.976C205.22 9.672 205.092 9.436 204.836 9.268C204.588 9.1 204.232 9.016 203.768 9.016C203.248 9.016 202.844 9.108 202.556 9.292C202.276 9.468 202.136 9.72 202.136 10.048C202.136 10.184 202.152 10.364 202.184 10.588C201.68 10.604 201.268 10.52 200.948 10.336C200.628 10.152 200.468 9.904 200.468 9.592C200.468 9.184 200.604 8.82 200.876 8.5C201.156 8.18 201.544 7.932 202.04 7.756C202.544 7.58 203.12 7.492 203.768 7.492C204.416 7.492 204.984 7.596 205.472 7.804C205.96 8.004 206.336 8.292 206.6 8.668C206.872 9.044 207.008 9.48 207.008 9.976C207.008 10.704 206.636 11.284 205.892 11.716C206.38 11.94 206.728 12.192 206.936 12.472C207.144 12.744 207.248 13.1 207.248 13.54C207.248 14.044 207.1 14.492 206.804 14.884C206.508 15.268 206.092 15.568 205.556 15.784C205.028 16 204.416 16.108 203.72 16.108ZM209.076 16.108C208.804 16.108 208.572 16.02 208.38 15.844C208.188 15.66 208.092 15.428 208.092 15.148C208.092 14.868 208.188 14.636 208.38 14.452C208.572 14.268 208.804 14.176 209.076 14.176C209.348 14.176 209.58 14.268 209.772 14.452C209.972 14.636 210.072 14.868 210.072 15.148C210.072 15.428 209.972 15.66 209.772 15.844C209.58 16.02 209.348 16.108 209.076 16.108ZM214.528 16.108C213.896 16.108 213.316 15.984 212.788 15.736C212.268 15.488 211.856 15.152 211.552 14.728C211.248 14.304 211.096 13.832 211.096 13.312V10.288C211.096 9.768 211.248 9.296 211.552 8.872C211.856 8.448 212.268 8.112 212.788 7.864C213.316 7.616 213.896 7.492 214.528 7.492C215.16 7.492 215.736 7.616 216.256 7.864C216.784 8.112 217.2 8.448 217.504 8.872C217.808 9.296 217.96 9.768 217.96 10.288V13.312C217.96 13.832 217.808 14.304 217.504 14.728C217.2 15.152 216.784 15.488 216.256 15.736C215.736 15.984 215.16 16.108 214.528 16.108ZM214.528 14.572C215.04 14.572 215.444 14.456 215.74 14.224C216.044 13.984 216.196 13.66 216.196 13.252V10.348C216.196 9.94 216.044 9.62 215.74 9.388C215.444 9.148 215.04 9.028 214.528 9.028C214.016 9.028 213.608 9.148 213.304 9.388C213.008 9.62 212.86 9.94 212.86 10.348V13.252C212.86 13.66 213.008 13.984 213.304 14.224C213.608 14.456 214.016 14.572 214.528 14.572Z" fill="url(#paint1_linear_75_2998)"/>
<defs>
<linearGradient id="paint0_linear_75_2998" x1="13.1604" y1="5" x2="40.9843" y2="44.7942" gradientUnits="userSpaceOnUse">
<stop stop-color="#DC84F2"/>
<stop offset="1" stop-color="#44C8DE"/>
</linearGradient>
<linearGradient id="paint1_linear_75_2998" x1="193" y1="5" x2="219.5" y2="17" gradientUnits="userSpaceOnUse">
<stop stop-color="#DC84F2"/>
<stop offset="1" stop-color="#44C8DE"/>
</linearGradient>
</defs>
</svg>
