<svg width="12" height="12" viewBox="0 0 12 12" fill="none" xmlns="http://www.w3.org/2000/svg">
<path d="M11.7145 1.81924e-07H10.5864C10.5477 -4.34629e-05 10.5095 0.00776635 10.4739 0.022956C10.4384 0.0381457 10.4063 0.0603988 10.3796 0.0883659C10.3529 0.116333 10.3321 0.149431 10.3186 0.185654C10.3051 0.221876 10.299 0.260469 10.3009 0.29909L10.3961 2.26828C9.84269 1.6162 9.15389 1.09252 8.37759 0.733666C7.60129 0.374815 6.75613 0.18941 5.9009 0.190352C2.64922 0.190352 -0.00237779 2.84409 1.6001e-06 6.09577C0.00238099 9.35268 2.64351 11.9921 5.9009 11.9921C7.3621 11.9942 8.7717 11.4521 9.85498 10.4715C9.88391 10.4456 9.90727 10.414 9.9236 10.3788C9.93994 10.3436 9.94891 10.3054 9.94998 10.2666C9.95105 10.2277 9.94419 10.1891 9.92982 10.153C9.91545 10.117 9.89387 10.0842 9.8664 10.0567L9.0574 9.24775C9.0062 9.19657 8.93747 9.16674 8.86511 9.16431C8.79276 9.16188 8.72218 9.18703 8.66766 9.23467C8.02843 9.79707 7.23295 10.1513 6.38728 10.25C5.54161 10.3488 4.68592 10.1875 3.93428 9.78751C3.18265 9.38756 2.57078 8.768 2.18025 8.01143C1.78971 7.25486 1.63907 6.39722 1.7484 5.55285C1.85772 4.70848 2.22183 3.91749 2.79217 3.28533C3.36252 2.65317 4.112 2.20988 4.94071 2.01454C5.76942 1.81921 6.63798 1.88112 7.43061 2.19201C8.22324 2.50291 8.90228 3.04802 9.37719 3.75468L6.9614 3.63881C6.92277 3.63697 6.88418 3.643 6.84796 3.65652C6.81174 3.67005 6.77864 3.69079 6.75067 3.71749C6.7227 3.74418 6.70045 3.77629 6.68526 3.81184C6.67007 3.8474 6.66226 3.88567 6.66231 3.92433V5.05241C6.66231 5.12813 6.69239 5.20076 6.74593 5.2543C6.79948 5.30785 6.87211 5.33793 6.94783 5.33793H11.7145C11.7902 5.33793 11.8628 5.30785 11.9164 5.2543C11.9699 5.20076 12 5.12813 12 5.05241V0.285527C12 0.209801 11.9699 0.137176 11.9164 0.0836292C11.8628 0.0300824 11.7902 1.81924e-07 11.7145 1.81924e-07Z" fill="white"/>
</svg>
