<svg width="34" height="33" viewBox="0 0 34 33" fill="none" xmlns="http://www.w3.org/2000/svg">
<mask id="path-1-outside-1_75_2984" maskUnits="userSpaceOnUse" x="0" y="14" width="34" height="19" fill="black">
<rect fill="white" y="14" width="34" height="19"/>
<path d="M32.6892 19.1382C31.9641 22.7634 30.0059 26.0256 27.1476 28.3704C24.2892 30.7151 20.7071 31.9977 17.0101 32C13.3131 32.0023 9.7293 30.7243 6.868 28.3832C4.0067 26.042 2.04443 22.7822 1.31474 19.1579L17 16L32.6892 19.1382Z"/>
</mask>
<path d="M32.6892 19.1382C31.9641 22.7634 30.0059 26.0256 27.1476 28.3704C24.2892 30.7151 20.7071 31.9977 17.0101 32C13.3131 32.0023 9.7293 30.7243 6.868 28.3832C4.0067 26.042 2.04443 22.7822 1.31474 19.1579L17 16L32.6892 19.1382Z" fill="#27313E"/>
<path d="M32.6892 19.1382C31.9641 22.7634 30.0059 26.0256 27.1476 28.3704C24.2892 30.7151 20.7071 31.9977 17.0101 32C13.3131 32.0023 9.7293 30.7243 6.868 28.3832C4.0067 26.042 2.04443 22.7822 1.31474 19.1579L17 16L32.6892 19.1382Z" stroke="#1C2530" stroke-width="2" mask="url(#path-1-outside-1_75_2984)"/>
<circle cx="17" cy="16" r="16" fill="url(#paint0_linear_75_2984)"/>
<circle cx="17" cy="16" r="12" fill="#1C2530"/>
<path d="M19.6396 10L20.1196 10C20.5172 10 20.8395 10.3223 20.8395 10.7199L20.8395 18.3713L22.2794 18.3713C22.9203 18.3713 23.2405 19.1481 22.7884 19.6003L20.3887 22C20.1075 22.2811 19.6517 22.2811 19.3706 22L16.9708 19.6003C16.5205 19.1499 16.8363 18.3713 17.4799 18.3713L18.9197 18.3713L18.9197 10.7199C18.9197 10.3223 19.242 10 19.6396 10ZM15.0801 21.2801L15.0801 13.8396L16.52 13.8396C17.1593 13.8396 17.4823 13.0638 17.029 12.6106L14.6293 10.2108C14.3481 9.92972 13.8923 9.92972 13.6112 10.2108L11.2114 12.6106C10.7607 13.0614 11.0774 13.8396 11.7205 13.8396L13.1603 13.8396L13.1603 21.2801C13.1603 21.6777 13.4826 22 13.8802 22L14.3602 22C14.7578 22 15.0801 21.6777 15.0801 21.2801Z" fill="url(#paint1_linear_75_2984)"/>
<defs>
<linearGradient id="paint0_linear_75_2984" x1="7.5" y1="-4.47035e-08" x2="31.5" y2="33" gradientUnits="userSpaceOnUse">
<stop stop-color="#DC84F2"/>
<stop offset="1" stop-color="#44C8DE"/>
</linearGradient>
<linearGradient id="paint1_linear_75_2984" x1="7.5" y1="3.5" x2="28.5" y2="27" gradientUnits="userSpaceOnUse">
<stop stop-color="#DC84F2"/>
<stop offset="1" stop-color="#44C8DE"/>
</linearGradient>
</defs>
</svg>
