<svg width="32" height="32" viewBox="0 0 32 32" fill="none" xmlns="http://www.w3.org/2000/svg">
<circle cx="16" cy="16" r="16" fill="#7297BC"/>
<circle cx="16" cy="16" r="12" fill="#1C2530"/>
<path d="M18.6396 10L19.1196 10C19.5172 10 19.8395 10.3223 19.8395 10.7199L19.8395 18.3713L21.2794 18.3713C21.9203 18.3713 22.2405 19.1481 21.7884 19.6003L19.3887 22C19.1075 22.2811 18.6517 22.2811 18.3706 22L15.9708 19.6003C15.5205 19.1499 15.8363 18.3713 16.4799 18.3713L17.9197 18.3713L17.9197 10.7199C17.9197 10.3223 18.242 10 18.6396 10ZM14.0801 21.2801L14.0801 13.8396L15.52 13.8396C16.1593 13.8396 16.4823 13.0638 16.029 12.6106L13.6293 10.2108C13.3481 9.92972 12.8923 9.92972 12.6112 10.2108L10.2114 12.6106C9.76067 13.0614 10.0774 13.8396 10.7205 13.8396L12.1603 13.8396L12.1603 21.2801C12.1603 21.6777 12.4826 22 12.8802 22L13.3602 22C13.7578 22 14.0801 21.6777 14.0801 21.2801Z" fill="#7297BC"/>
</svg>
