<svg width="20" height="21" viewBox="0 0 20 21" fill="none" xmlns="http://www.w3.org/2000/svg">
<path d="M19.1451 12.7953L17.4417 11.8156C17.6136 10.8917 17.6136 9.94388 17.4417 9.01998L19.1451 8.04032C19.341 7.92881 19.429 7.69783 19.365 7.48278C18.9211 6.06506 18.1654 4.78274 17.1778 3.71547C17.0259 3.55219 16.778 3.51237 16.586 3.62387L14.8827 4.60354C14.1669 3.99025 13.3433 3.51635 12.4516 3.20573V1.25039C12.4516 1.02737 12.2957 0.832239 12.0757 0.78445C10.6083 0.457897 9.10487 0.473826 7.70939 0.78445C7.48948 0.832239 7.33354 1.02737 7.33354 1.25039V3.20971C6.44587 3.52432 5.62218 3.99822 4.90246 4.60752L3.2031 3.62786C3.00717 3.51635 2.76327 3.55219 2.61132 3.71945C1.6237 4.78274 0.867985 6.06506 0.424153 7.48677C0.356179 7.70181 0.448144 7.93279 0.64407 8.0443L2.34742 9.02396C2.17549 9.94787 2.17549 10.8957 2.34742 11.8196L0.64407 12.7992C0.448144 12.9107 0.360177 13.1417 0.424153 13.3568C0.867985 14.7745 1.6237 16.0568 2.61132 17.1241C2.76327 17.2874 3.01117 17.3272 3.2031 17.2157L4.90646 16.236C5.62218 16.8493 6.44587 17.3232 7.33753 17.6338V19.5931C7.33753 19.8162 7.49348 20.0113 7.71339 20.0591C9.18084 20.3856 10.6843 20.3697 12.0797 20.0591C12.2997 20.0113 12.4556 19.8162 12.4556 19.5931V17.6338C13.3433 17.3192 14.1669 16.8453 14.8867 16.236L16.59 17.2157C16.786 17.3272 17.0299 17.2913 17.1818 17.1241C18.1694 16.0608 18.9251 14.7785 19.369 13.3568C19.429 13.1377 19.341 12.9068 19.1451 12.7953ZM9.89257 13.6037C8.12923 13.6037 6.69378 12.174 6.69378 10.4178C6.69378 8.66156 8.12923 7.2319 9.89257 7.2319C11.6559 7.2319 13.0914 8.66156 13.0914 10.4178C13.0914 12.174 11.6559 13.6037 9.89257 13.6037Z" fill="url(#paint0_linear_75_3006)"/>
<defs>
<linearGradient id="paint0_linear_75_3006" x1="0.401917" y1="0.545471" x2="19.3056" y2="20.8814" gradientUnits="userSpaceOnUse">
<stop stop-color="#DC84F2"/>
<stop offset="1" stop-color="#44C8DE"/>
</linearGradient>
</defs>
</svg>
