<svg width="12" height="12" viewBox="0 0 12 12" fill="none" xmlns="http://www.w3.org/2000/svg">
<path d="M12 6C12 9.31372 9.31372 12 6 12C2.68628 12 0 9.31372 0 6C0 2.68628 2.68628 0 6 0C9.31372 0 12 2.68628 12 6ZM8.57296 5.14524C8.6924 4.34688 8.08447 3.91769 7.2532 3.63138L7.52286 2.54988L6.86448 2.38582L6.60196 3.43882C6.42888 3.39569 6.2511 3.35502 6.07447 3.31471L6.33888 2.25479L5.68086 2.09073L5.41103 3.17185C5.26776 3.13921 5.12712 3.10696 4.99062 3.07304L4.99137 3.06965L4.08339 2.84296L3.90825 3.54607C3.90825 3.54607 4.39674 3.65802 4.38644 3.66494C4.6531 3.73149 4.70129 3.90794 4.69321 4.0478L4.38605 5.27985C4.40444 5.28455 4.42824 5.2913 4.45449 5.3018C4.43255 5.29635 4.4091 5.29035 4.38491 5.28455L3.95436 7.01047C3.92173 7.09147 3.83903 7.21297 3.65265 7.16685C3.6592 7.17641 3.1741 7.04741 3.1741 7.04741L2.84724 7.80097L3.70403 8.01452C3.86342 8.05447 4.01964 8.09627 4.17339 8.13564L3.90092 9.2295L4.55855 9.39356L4.82838 8.31131C5.00278 8.35857 5.17768 8.40395 5.35306 8.44744L5.08415 9.52461L5.74253 9.68867L6.015 8.59686C7.13768 8.80931 7.98191 8.72361 8.33724 7.70831C8.6236 6.89081 8.32299 6.41925 7.73231 6.11175C8.16247 6.0126 8.48652 5.72969 8.57296 5.14524ZM7.06868 7.25441C6.86521 8.07191 5.48865 7.62997 5.04235 7.51916L5.40389 6.06999C5.85017 6.18135 7.28131 6.40185 7.06868 7.25441ZM7.27231 5.13344C7.08668 5.87705 5.94092 5.49924 5.56926 5.40663L5.89703 4.09227C6.26872 4.18488 7.46564 4.35774 7.27231 5.13344Z" fill="white"/>
</svg>
