<svg width="12" height="11" viewBox="0 0 12 11" fill="none" xmlns="http://www.w3.org/2000/svg">
<path d="M11.625 8.25H3.75V7.875C3.75 7.66875 3.58125 7.5 3.375 7.5H2.625C2.41875 7.5 2.25 7.66875 2.25 7.875V8.25H0.375C0.16875 8.25 0 8.41875 0 8.625V9.375C0 9.58125 0.16875 9.75 0.375 9.75H2.25V10.125C2.25 10.3313 2.41875 10.5 2.625 10.5H3.375C3.58125 10.5 3.75 10.3313 3.75 10.125V9.75H11.625C11.8313 9.75 12 9.58125 12 9.375V8.625C12 8.41875 11.8313 8.25 11.625 8.25ZM11.625 4.5H9.75V4.125C9.75 3.91875 9.58125 3.75 9.375 3.75H8.625C8.41875 3.75 8.25 3.91875 8.25 4.125V4.5H0.375C0.16875 4.5 0 4.66875 0 4.875V5.625C0 5.83125 0.16875 6 0.375 6H8.25V6.375C8.25 6.58125 8.41875 6.75 8.625 6.75H9.375C9.58125 6.75 9.75 6.58125 9.75 6.375V6H11.625C11.8313 6 12 5.83125 12 5.625V4.875C12 4.66875 11.8313 4.5 11.625 4.5ZM11.625 0.75H6.75V0.375C6.75 0.16875 6.58125 0 6.375 0H5.625C5.41875 0 5.25 0.16875 5.25 0.375V0.75H0.375C0.16875 0.75 0 0.91875 0 1.125V1.875C0 2.08125 0.16875 2.25 0.375 2.25H5.25V2.625C5.25 2.83125 5.41875 3 5.625 3H6.375C6.58125 3 6.75 2.83125 6.75 2.625V2.25H11.625C11.8313 2.25 12 2.08125 12 1.875V1.125C12 0.91875 11.8313 0.75 11.625 0.75Z" fill="white"/>
</svg>
